<?xml version="1.0" encoding="UTF-8" standalone="no"?>
<svg
   viewBox="20 172.09996 449.99996 100"
   version="1.1"
   id="svg88"
   sodipodi:docname="logo.svg"
   width="450"
   height="100"
   inkscape:version="1.2 (dc2aeda, 2022-05-15)"
   xmlns:inkscape="http://www.inkscape.org/namespaces/inkscape"
   xmlns:sodipodi="http://sodipodi.sourceforge.net/DTD/sodipodi-0.dtd"
   xmlns="http://www.w3.org/2000/svg"
   xmlns:svg="http://www.w3.org/2000/svg">
  <defs
     id="defs92" />
  <sodipodi:namedview
     id="namedview90"
     pagecolor="#000000"
     bordercolor="#666666"
     borderopacity="1.0"
     inkscape:pageshadow="2"
     inkscape:pageopacity="0"
     inkscape:pagecheckerboard="0"
     showgrid="false"
     inkscape:zoom="1.8589793"
     inkscape:cx="201.99257"
     inkscape:cy="121.57209"
     inkscape:window-width="1728"
     inkscape:window-height="966"
     inkscape:window-x="1792"
     inkscape:window-y="231"
     inkscape:window-maximized="0"
     inkscape:current-layer="svg88"
     inkscape:showpageshadow="2"
     inkscape:deskcolor="#000000" />
  <g
     id="g52"
     transform="translate(-68,-68)">
    <svg
       version="1.1"
       id="Layer_1"
       x="90"
       y="242.09996"
       viewBox="361.5 517.69995 773.90002 473.10004"
       xml:space="preserve"
       height="90.800079"
       width="148.54158"
       preserveAspectRatio="xMinYMin"
       enable-background="new 0 0 1500 1500"
       style="overflow:visible"><linearGradient
         id="SVGID_1_"
         gradientUnits="userSpaceOnUse"
         x1="428.5336"
         y1="1184.3234"
         x2="1012.5336"
         y2="624.32343"><stop
           offset="0.1205"
           style="stop-color: #1C4FC2;"
           id="stop2" /><stop
           offset="0.7718"
           style="stop-color: #20A0E8;"
           id="stop4" /></linearGradient><path
         class="st0"
         d="M 959.3,990.8 H 705 c -12.4,0 -22.5,-10.1 -22.5,-22.5 0,-12.4 10.1,-22.5 22.5,-22.5 h 254.3 c 72.3,0 131.2,-58.8 131.2,-131.2 0,-72.3 -58.8,-131.2 -131.2,-131.2 h -31.1 c -11.3,0 -20.8,-8.3 -22.3,-19.4 -8,-57.7 -58,-101.2 -116.3,-101.2 -63,0 -114.6,49.3 -117.3,112.2 -0.5,12.1 -10.4,21.5 -22.5,21.5 H 598 c -12.4,0 -22.5,-10.1 -22.5,-22.5 0,-12.4 10.1,-22.5 22.5,-22.5 h 31.5 c 13.6,-76.5 80.1,-133.8 160,-133.8 74,0 138.4,50.7 157,120.7 h 12.7 c 97.2,0 176.2,79 176.2,176.2 0,97.2 -78.9,176.2 -176.1,176.2 z"
         style="fill:#000000;fill-opacity:1"
         id="path7" /><linearGradient
         id="SVGID_2_"
         gradientUnits="userSpaceOnUse"
         x1="357.2117"
         y1="1109.9448"
         x2="941.21167"
         y2="549.94482"><stop
           offset="0.1205"
           style="stop-color: #1C4FC2;"
           id="stop9" /><stop
           offset="0.7718"
           style="stop-color: #20A0E8;"
           id="stop11" /></linearGradient><path
         class="st1"
         d="m 947.2,789.7 h -465 c -12.4,0 -22.5,-10.1 -22.5,-22.5 0,-12.4 10.1,-22.5 22.5,-22.5 h 465.1 c 12.4,0 22.5,10.1 22.5,22.5 0,12.4 -10.1,22.5 -22.6,22.5 z"
         style="fill:#0065ff;fill-opacity:1"
         id="path14" /><linearGradient
         id="SVGID_3_"
         gradientUnits="userSpaceOnUse"
         x1="206.8885"
         y1="953.1792"
         x2="790.88849"
         y2="393.1792"><stop
           offset="0.1205"
           style="stop-color: #1C4FC2;"
           id="stop16" /><stop
           offset="0.7718"
           style="stop-color: #20A0E8;"
           id="stop18" /></linearGradient><path
         class="st2"
         d="M 417.8,789.7 H 384 c -12.4,0 -22.5,-10.1 -22.5,-22.5 0,-12.4 10.1,-22.5 22.5,-22.5 h 33.8 c 12.4,0 22.5,10.1 22.5,22.5 0,12.4 -10.1,22.5 -22.5,22.5 z"
         style="fill:#0065ff;fill-opacity:1"
         id="path21" /><linearGradient
         id="SVGID_4_"
         gradientUnits="userSpaceOnUse"
         x1="435.61069"
         y1="1191.7037"
         x2="1019.6107"
         y2="631.70367"><stop
           offset="0.1205"
           style="stop-color: #1C4FC2;"
           id="stop23" /><stop
           offset="0.7718"
           style="stop-color: #20A0E8;"
           id="stop25" /></linearGradient><path
         class="st3"
         d="M 940.8,891.1 H 604.5 c -12.4,0 -22.5,-10.1 -22.5,-22.5 0,-12.4 10.1,-22.5 22.5,-22.5 h 336.3 c 12.4,0 22.5,10.1 22.5,22.5 0,12.4 -10.1,22.5 -22.5,22.5 z"
         style="fill:#0065ff;fill-opacity:1"
         id="path28" /><linearGradient
         id="SVGID_5_"
         gradientUnits="userSpaceOnUse"
         x1="316.12299"
         y1="1067.0952"
         x2="900.12299"
         y2="507.09521"><stop
           offset="0.1205"
           style="stop-color: #1C4FC2;"
           id="stop30" /><stop
           offset="0.7718"
           style="stop-color: #20A0E8;"
           id="stop32" /></linearGradient><path
         class="st4"
         d="m 540.1,891.1 h -33.8 c -12.4,0 -22.5,-10.1 -22.5,-22.5 0,-12.4 10.1,-22.5 22.5,-22.5 h 33.8 c 12.4,0 22.5,10.1 22.5,22.5 0,12.4 -10.1,22.5 -22.5,22.5 z"
         style="fill:#0065ff;fill-opacity:1"
         id="path35" /><linearGradient
         id="SVGID_6_"
         gradientUnits="userSpaceOnUse"
         x1="215.7648"
         y1="962.43591"
         x2="799.76477"
         y2="402.43591"><stop
           offset="0.1205"
           style="stop-color: #1C4FC2;"
           id="stop37" /><stop
           offset="0.7718"
           style="stop-color: #20A0E8;"
           id="stop39" /></linearGradient><path
         class="st5"
         d="m 533.6,696.3 h -33.8 c -12.4,0 -22.5,-10.1 -22.5,-22.5 0,-12.4 10.1,-22.5 22.5,-22.5 h 33.8 c 12.4,0 22.5,10.1 22.5,22.5 0,12.4 -10,22.5 -22.5,22.5 z"
         style="fill:#0065ff;fill-opacity:1"
         id="path42" /><linearGradient
         id="SVGID_7_"
         gradientUnits="userSpaceOnUse"
         x1="413.76181"
         y1="1168.9185"
         x2="997.76178"
         y2="608.91852"><stop
           offset="0.1205"
           style="stop-color: #1C4FC2;"
           id="stop44" /><stop
           offset="0.7718"
           style="stop-color: #20A0E8;"
           id="stop46" /></linearGradient><path
         class="st6"
         d="m 639.9,990.8 h -33.8 c -12.4,0 -22.5,-10.1 -22.5,-22.5 0,-12.4 10.1,-22.5 22.5,-22.5 h 33.8 c 12.4,0 22.5,10.1 22.5,22.5 0,12.5 -10.1,22.5 -22.5,22.5 z"
         style="fill:#0065ff;fill-opacity:1"
         id="path49" /></svg>
  </g>
  <g
     id="g86"
     transform="translate(-67.46207,-50.786252)"
     style="fill:#ffffff;fill-opacity:1">
    <svg
       y="258.90601"
       viewBox="-139.83203 -34.860828 281.87573 44.310772"
       x="250.702"
       height="44.310772"
       width="281.87573"
       style="overflow:visible;fill:#ffffff;fill-opacity:1"
       version="1.1"
       id="svg84">
      <g
         fill="#ffffff"
         fill-opacity="1"
         id="g82"
         style="fill:#ffffff;fill-opacity:1">
        <path
           d="m 26.88,-6.58 v -10.25 h 5.78 v 13.12 q -2.53,2.02 -5.92,3.1 -3.38,1.08 -6.95,1.08 v 0 q -5.03,0 -9.07,-2.19 -4.05,-2.18 -6.35,-6.03 -2.3,-3.86 -2.3,-8.7 v 0 q 0,-4.84 2.3,-8.69 2.3,-3.86 6.37,-6.04 4.06,-2.19 9.14,-2.19 v 0 q 4.14,0 7.52,1.36 3.39,1.37 5.69,4 v 0 l -3.86,3.76 q -3.76,-3.76 -9.07,-3.76 v 0 q -3.48,0 -6.18,1.46 -2.7,1.45 -4.23,4.08 -1.53,2.64 -1.53,6.02 v 0 q 0,3.29 1.53,5.92 1.53,2.63 4.23,4.14 2.7,1.5 6.14,1.5 v 0 q 3.85,0 6.76,-1.69 z"
           transform="rotate(-0.87492668,8.7802558,9259.692)"
           id="path62"
           style="fill:#0065ff;fill-opacity:1" />
        <path
           d="m 15.13,0.33 q -3.8,0 -6.86,-1.65 Q 5.22,-2.96 3.5,-5.9 1.79,-8.84 1.79,-12.55 v 0 q 0,-3.71 1.71,-6.63 1.72,-2.91 4.77,-4.55 3.06,-1.65 6.86,-1.65 v 0 q 3.86,0 6.91,1.65 3.06,1.64 4.77,4.55 1.72,2.92 1.72,6.63 v 0 q 0,3.71 -1.72,6.65 -1.71,2.94 -4.77,4.58 -3.05,1.65 -6.91,1.65 z m 0,-5.03 q 3.25,0 5.36,-2.16 2.12,-2.16 2.12,-5.69 v 0 q 0,-3.52 -2.12,-5.69 -2.11,-2.16 -5.36,-2.16 v 0 q -3.24,0 -5.33,2.16 -2.09,2.17 -2.09,5.69 v 0 q 0,3.53 2.09,5.69 2.09,2.16 5.33,2.16 z"
           transform="rotate(-0.64599463,7.8520058,9403.3413)"
           id="path64"
           style="fill:#0065ff;fill-opacity:1" />
        <path
           d="m 17.77,-25.38 q 3.66,0 6.55,1.6 2.89,1.6 4.54,4.51 1.64,2.91 1.64,6.72 v 0 q 0,3.81 -1.64,6.75 -1.65,2.93 -4.54,4.53 -2.89,1.6 -6.55,1.6 v 0 q -5.08,0 -8.04,-3.39 v 0 12.18 H 3.85 V -25.1 h 5.6 v 3.29 q 1.45,-1.78 3.59,-2.68 2.14,-0.89 4.73,-0.89 z M 17.11,-4.7 q 3.24,0 5.33,-2.16 2.09,-2.16 2.09,-5.69 v 0 q 0,-3.52 -2.09,-5.69 -2.09,-2.16 -5.33,-2.16 v 0 q -2.12,0 -3.81,0.97 -1.69,0.96 -2.68,2.75 -0.99,1.78 -0.99,4.13 v 0 q 0,2.35 0.99,4.14 0.99,1.78 2.68,2.75 1.69,0.96 3.81,0.96 z"
           transform="rotate(-0.43142838,9.3912558,10175.807)"
           id="path66"
           style="fill:#0065ff;fill-opacity:1" />
        <path
           d="m 18.09,-25.38 q 4.75,0 7.62,2.77 2.87,2.78 2.87,8.23 v 0 V 0 H 22.7 v -13.63 q 0,-3.29 -1.55,-4.96 -1.55,-1.67 -4.42,-1.67 v 0 q -3.24,0 -5.12,1.95 -1.88,1.95 -1.88,5.62 v 0 V 0 H 3.85 v -34.87 h 5.88 v 12.69 q 1.46,-1.55 3.59,-2.38 2.14,-0.82 4.77,-0.82 z"
           transform="rotate(-0.20934515,8.3807558,12395.761)"
           id="path68"
           style="fill:#0065ff;fill-opacity:1" />
        <path
           d="m 27.45,-12.41 q 0,0.61 -0.1,1.74 v 0 H 7.66 q 0.52,2.77 2.7,4.4 2.19,1.62 5.43,1.62 v 0 q 4.14,0 6.82,-2.73 v 0 l 3.15,3.62 q -1.7,2.02 -4.28,3.06 -2.59,1.03 -5.83,1.03 v 0 Q 11.52,0.33 8.37,-1.32 5.22,-2.96 3.5,-5.9 1.79,-8.84 1.79,-12.55 v 0 q 0,-3.66 1.66,-6.6 1.67,-2.94 4.63,-4.58 2.96,-1.65 6.68,-1.65 v 0 q 3.66,0 6.55,1.62 2.89,1.62 4.52,4.56 1.62,2.94 1.62,6.79 z m -12.69,-8.27 q -2.82,0 -4.77,1.67 -1.95,1.67 -2.38,4.44 v 0 h 14.25 q -0.38,-2.73 -2.31,-4.42 -1.92,-1.69 -4.79,-1.69 z"
           transform="rotate(0.00204726,7.5817558,-385676.85)"
           id="path70"
           style="fill:#0065ff;fill-opacity:1" />
        <path
           d="m 9.45,-21.43 q 2.53,-3.95 8.93,-3.95 v 0 5.59 q -0.75,-0.14 -1.37,-0.14 v 0 q -3.43,0 -5.35,2 -1.93,2 -1.93,5.76 v 0 V 0 H 3.85 v -25.1 h 5.6 z"
           transform="rotate(0.16666731,6.5712558,4983.0717)"
           id="path72"
           style="fill:#0065ff;fill-opacity:1" />
        <path
           d="m 27.54,-32.9 h 6.11 V 0 H 27.54 V -14.1 H 10.53 V 0 H 4.42 v -32.9 h 6.11 v 13.58 h 17.01 z"
           transform="rotate(0.36269166,9.7907558,5186.7626)"
           id="path74"
           style="fill:#000000;fill-opacity:1" />
        <path
           d="m 15.13,0.33 q -3.8,0 -6.86,-1.65 Q 5.22,-2.96 3.5,-5.9 1.79,-8.84 1.79,-12.55 v 0 q 0,-3.71 1.71,-6.63 1.72,-2.91 4.77,-4.55 3.06,-1.65 6.86,-1.65 v 0 q 3.86,0 6.91,1.65 3.06,1.64 4.77,4.55 1.72,2.92 1.72,6.63 v 0 q 0,3.71 -1.72,6.65 -1.71,2.94 -4.77,4.58 -3.05,1.65 -6.91,1.65 z m 0,-5.03 q 3.25,0 5.36,-2.16 2.12,-2.16 2.12,-5.69 v 0 q 0,-3.52 -2.12,-5.69 -2.11,-2.16 -5.36,-2.16 v 0 q -3.24,0 -5.33,2.16 -2.09,2.17 -2.09,5.69 v 0 q 0,3.53 2.09,5.69 2.09,2.16 5.33,2.16 z"
           transform="rotate(0.59797138,7.8520058,6707.4823)"
           id="path76"
           style="fill:#000000;fill-opacity:1" />
        <path
           d="m 11.61,0.33 q -3.06,0 -5.97,-0.8 -2.91,-0.8 -4.65,-2.02 v 0 l 2.25,-4.47 q 1.69,1.13 4.07,1.81 2.37,0.69 4.67,0.69 v 0 q 5.27,0 5.27,-2.78 v 0 q 0,-1.31 -1.34,-1.83 -1.34,-0.52 -4.3,-0.99 v 0 q -3.1,-0.47 -5.05,-1.08 -1.95,-0.61 -3.39,-2.14 -1.43,-1.52 -1.43,-4.25 v 0 q 0,-3.57 2.98,-5.71 2.99,-2.14 8.06,-2.14 v 0 q 2.59,0 5.17,0.59 2.59,0.59 4.23,1.57 v 0 l -2.25,4.47 q -3.2,-1.88 -7.19,-1.88 v 0 q -2.59,0 -3.93,0.77 -1.34,0.78 -1.34,2.05 v 0 q 0,1.41 1.44,1.99 1.43,0.59 4.44,1.11 v 0 q 3.01,0.47 4.93,1.08 1.93,0.61 3.32,2.07 1.38,1.45 1.38,4.13 v 0 q 0,3.53 -3.05,5.64 -3.06,2.12 -8.32,2.12 z"
           transform="rotate(0.78397309,6.2070058,7262.9065)"
           id="path78"
           style="fill:#000000;fill-opacity:1" />
        <path
           d="m 17.3,-5.55 1.64,4.19 q -1.03,0.84 -2.51,1.27 -1.48,0.42 -3.13,0.42 v 0 Q 9.16,0.33 6.91,-1.83 4.65,-4 4.65,-8.13 v 0 -12.08 H 0.52 v -4.7 h 4.13 v -5.73 h 5.88 v 5.73 h 6.72 v 4.7 h -6.72 v 11.94 q 0,1.83 0.89,2.79 0.89,0.97 2.59,0.97 v 0 q 1.97,0 3.29,-1.04 z"
           transform="rotate(0.93305803,5.0202558,7529.1678)"
           id="path80"
           style="fill:#000000;fill-opacity:1" />
      </g>
    </svg>
  </g>
</svg>
